<svg width="680.000000pt" height="135.000000pt" viewBox="0 0 680.000000 135.000000" xmlns="http://www.w3.org/2000/svg">
  <g transform="translate(0.000000,135.000000) scale(0.100000,-0.100000)" fill="#fdfdfd" stroke="none">
    <path d="M0 675 l0 -675 3400 0 3400 0 0 675 0 675 -3400 0 -3400 0 0 -675z
m497 620 l51 -23 18 -27 17 -26 -21 -22 -21 -21 -67 24 -67 23 -56 0 c-66 0
-115 -19 -154 -59 -42 -42 -59 -80 -64 -145 l-6 -58 28 -57 27 -56 44 -28 c25
-15 65 -31 89 -35 l46 -6 57 11 c31 7 63 17 70 22 l12 10 0 62 c0 33 6 72 13
86 l13 25 22 3 c13 2 30 -2 38 -8 l14 -12 0 -104 0 -104 -38 -24 c-21 -13 -61
-32 -88 -42 l-49 -18 -70 0 -70 0 -55 26 c-100 46 -162 117 -190 220 l-13 48
5 48 c9 98 85 214 170 258 18 10 58 24 88 30 l55 13 50 -6 c28 -3 73 -16 102
-28z m2651 -12 c4 -26 -25 -55 -51 -51 -11 2 -26 13 -34 25 l-15 22 27 26 26
27 22 -15 c12 -8 23 -23 25 -34z m2225 32 c31 -8 75 -26 97 -40 l40 -25 0 -23
c0 -27 -17 -47 -41 -47 -9 0 -38 10 -65 21 l-49 22 -65 0 -65 0 -40 -21 c-50
-25 -80 -56 -100 -104 l-15 -37 0 -59 0 -58 23 -44 22 -45 42 -32 43 -31 57
-12 c73 -15 93 -26 93 -50 0 -23 -36 -50 -66 -50 -12 0 -50 9 -85 20 l-64 20
-46 37 c-51 42 -90 98 -109 156 -6 20 -11 64 -11 97 l0 60 27 60 27 60 49 45
c51 49 95 71 162 85 61 12 77 11 139 -5z m-4306 -2 c-4 -3 -10 -3 -14 0 -3 4
0 7 7 7 7 0 10 -3 7 -7z m786 -21 c20 -22 187 -375 187 -395 0 -9 -10 -23 -22
-31 l-22 -16 -159 0 -158 0 -28 -62 c-15 -35 -35 -69 -44 -77 l-17 -13 -25 6
-25 6 -5 23 -6 23 121 254 c67 140 128 265 136 278 17 26 45 28 67 4z m541 -4
l16 -22 0 -233 0 -233 38 0 c21 0 48 -7 60 -16 l22 -15 0 -24 0 -24 -19 -11
c-11 -5 -53 -10 -95 -10 l-75 0 -15 16 -16 15 0 271 0 271 17 19 c22 24 49 23
67 -4z m1579 -2 l39 -19 26 -39 26 -40 4 -57 4 -58 -21 -40 c-11 -23 -32 -50
-46 -61 l-26 -20 7 -40 6 -40 -21 -12 c-30 -15 -57 -5 -78 31 l-17 29 -73 0
-73 0 0 -90 0 -90 -20 -20 c-23 -23 -39 -25 -63 -7 l-16 12 -2 273 -2 273 19
20 18 20 136 -3 135 -3 38 -19z m600 6 c20 -21 187 -373 187 -392 0 -8 -7 -22
-17 -32 l-16 -18 -164 0 -164 0 -25 -57 c-29 -66 -50 -93 -72 -93 -19 0 -52
29 -52 45 0 14 232 507 256 543 18 27 45 28 67 4z m1231 2 l16 -15 0 -240 0
-239 45 0 45 0 20 -20 c11 -11 20 -25 20 -32 0 -6 -7 -20 -17 -30 l-16 -18
-83 0 -83 0 -15 22 -16 22 0 263 0 263 20 20 c24 24 43 25 64 4z m710 -6 c9
-12 16 -26 16 -30 0 -5 -9 -17 -20 -28 l-20 -20 -40 0 -40 0 0 -80 0 -80 114
0 115 0 15 -16 c22 -21 20 -51 -3 -64 l-20 -10 -110 0 -111 0 0 -80 0 -80 130
0 130 0 20 -20 c25 -25 25 -42 1 -64 l-18 -16 -174 2 -173 3 -13 25 -13 25 0
258 0 257 20 20 20 20 79 0 80 0 15 -22z m175 3 l20 -20 -6 -21 c-3 -11 -14
-25 -25 -31 l-19 -10 -25 16 c-28 18 -31 41 -7 67 21 23 38 23 62 -1z m-3727
-38 c10 -9 18 -22 18 -30 0 -7 -18 -36 -40 -64 -43 -54 -60 -101 -60 -165 l0
-40 26 -52 25 -51 45 -29 44 -30 45 -7 c53 -7 95 0 145 25 41 21 71 52 94 97
l16 32 0 61 0 61 -15 36 c-8 19 -31 53 -50 74 -19 22 -35 44 -35 49 0 6 9 19
20 30 11 11 24 20 30 20 20 0 87 -70 113 -119 15 -27 31 -71 36 -98 l9 -48 -9
-49 c-5 -27 -19 -68 -31 -92 -45 -90 -146 -165 -244 -180 l-42 -6 -54 11 c-31
7 -79 26 -109 44 l-53 32 -36 48 c-40 52 -70 134 -70 189 0 51 28 137 61 184
30 44 74 84 92 84 6 0 19 -7 29 -17z m-2072 -33 c0 -5 -5 -10 -11 -10 -5 0 -7
5 -4 10 3 6 8 10 11 10 2 0 4 -4 4 -10z m445 0 c3 -5 1 -10 -4 -10 -6 0 -11 5
-11 10 0 6 2 10 4 10 3 0 8 -4 11 -10z m-212 -117 c-13 -2 -33 -2 -45 0 -13 2
-3 4 22 4 25 0 35 -2 23 -4z m-718 -119 c21 -21 16 -53 -10 -70 l-21 -14 -22
16 -22 15 0 24 0 24 18 10 c24 15 38 13 57 -5z m5097 -161 c25 -22 23 -50 -6
-68 l-25 -16 -19 10 c-11 6 -22 20 -25 31 l-6 21 20 20 c23 23 37 24 61 2z
m-3392 -63 l10 -20 -20 -20 c-24 -24 -43 -25 -64 -4 -22 22 -20 50 6 68 l21
15 18 -10 c10 -5 23 -18 29 -29z m595 9 c11 -18 -4 -57 -25 -64 -10 -3 -28 -1
-40 5 l-20 11 0 24 0 24 22 15 21 15 18 -10 c10 -5 21 -14 24 -20z m1380 0
c11 -18 -4 -57 -25 -64 -10 -3 -28 -1 -40 5 l-20 11 0 24 0 24 22 15 21 15 18
-10 c10 -5 21 -14 24 -20z m745 -9 l10 -20 -20 -20 c-24 -24 -43 -25 -64 -4
-22 22 -20 50 6 68 l21 15 18 -10 c10 -5 23 -18 29 -29z m1280 20 c11 -11 20
-23 20 -28 0 -18 -33 -52 -50 -52 -17 0 -50 34 -50 52 0 11 38 48 50 48 6 0
19 -9 30 -20z m-4987 -107 c-7 -2 -21 -2 -30 0 l-18 5 30 0 c17 0 24 -2 18 -5z
m467 -442 l0 -99 13 -5 c6 -3 -1 -5 -18 -5 -16 0 -24 2 -17 5 l12 5 0 93 0 93
-12 5 -13 5 18 1 17 1 0 -99z m452 -6 l3 -105 -20 1 -20 1 13 5 12 5 0 93 0
93 -12 5 -13 5 17 1 17 1 3 -105z m368 6 l0 -99 13 -5 c6 -3 -1 -5 -18 -5 -16
0 -24 2 -17 5 l12 5 0 93 0 93 -12 5 -13 5 18 1 17 1 0 -99z m2030 0 l0 -99
13 -5 c6 -3 -1 -5 -18 -5 -16 0 -24 2 -17 5 l12 5 0 93 0 93 -12 5 -13 5 18 1
17 1 0 -99z m-3271 12 l-1 -78 -8 30 c-4 17 -8 51 -9 78 l-1 47 10 0 10 0 -1
-77z m138 -15 c-2 -18 -4 -4 -4 32 0 36 2 50 4 33 2 -18 2 -48 0 -65z m2856
-100 l12 -8 -30 1 c-16 0 -24 3 -17 6 l12 5 2 86 2 87 3 -85 4 -84 12 -8z
m-1876 40 c-2 -24 -4 -5 -4 42 0 47 2 66 4 43 2 -24 2 -62 0 -85z m1350 0 c-2
-24 -4 -5 -4 42 0 47 2 66 4 43 2 -24 2 -62 0 -85z m680 0 c-2 -24 -4 -5 -4
42 0 47 2 66 4 43 2 -24 2 -62 0 -85z m-1450 85 c-4 -3 -10 -3 -14 0 -3 4 0 7
7 7 7 0 10 -3 7 -7z m340 0 c-4 -3 -10 -3 -14 0 -3 4 0 7 7 7 7 0 10 -3 7 -7z
m570 0 c-4 -3 -10 -3 -14 0 -3 4 0 7 7 7 7 0 10 -3 7 -7z m-2374 -125 l12 -8
-20 0 -20 0 5 67 5 68 3 -60 3 -60 12 -7z m1092 112 c3 -5 4 -10 1 -10 -3 0
-8 5 -11 10 -3 6 -4 10 -1 10 3 0 8 -4 11 -10z m836 -52 l-3 -51 14 -8 13 -9
-30 1 c-16 0 -24 3 -17 6 l12 5 0 61 c0 33 3 57 7 53 4 -3 6 -29 4 -58z m1194
52 c3 -5 4 -10 1 -10 -3 0 -8 5 -11 10 -3 6 -4 10 -1 10 3 0 8 -4 11 -10z
m695 -49 l0 -59 13 -5 c6 -3 -1 -6 -18 -6 l-30 -1 14 9 13 8 -3 57 c-2 31 -1
56 4 56 4 0 7 -27 7 -59z m100 -11 l0 -48 13 -5 c6 -3 -1 -5 -18 -5 -16 0 -24
2 -17 5 l12 5 0 47 0 47 -12 14 -13 14 18 -13 17 -13 0 -48z m85 60 c3 -5 4
-10 1 -10 -3 0 -8 5 -11 10 -3 6 -4 10 -1 10 3 0 8 -4 11 -10z m-2578 -22 l-5
-13 -1 19 c-1 11 2 17 5 13 3 -3 4 -12 1 -19z m910 0 l-5 -13 -1 19 c-1 11 2
17 5 13 3 -3 4 -12 1 -19z m-2234 -90 l12 -8 -20 0 -20 0 5 57 5 58 3 -50 c2
-27 9 -53 15 -57z m1567 82 l0 -20 -17 1 -18 1 13 5 c6 2 12 11 12 19 0 8 2
14 5 14 3 0 5 -9 5 -20z m480 0 l0 -20 -17 1 -18 1 13 5 c6 2 12 11 12 19 0 8
2 14 5 14 3 0 5 -9 5 -20z m-1763 -37 c-3 -10 -5 -2 -5 17 0 19 2 27 5 18 2
-10 2 -26 0 -35z m807 32 c3 -8 1 -15 -4 -15 -6 0 -10 7 -10 15 0 8 2 15 4 15
2 0 6 -7 10 -15z m96 0 c0 -8 -7 -15 -15 -15 l-16 0 13 15 c16 18 18 18 18 0z
m1257 -37 l-4 -23 0 40 c-1 22 1 32 4 23 2 -10 2 -28 0 -40z m606 -40 l12 -8
-30 1 c-16 0 -24 3 -17 6 l12 5 2 46 1 47 4 -45 c3 -24 10 -48 16 -52z m71 77
c3 -8 1 -15 -4 -15 -6 0 -10 7 -10 15 0 8 2 15 4 15 2 0 6 -7 10 -15z m96 0
c0 -8 -7 -15 -15 -15 l-16 0 13 15 c16 18 18 18 18 0z m402 -47 c2 -21 0 -38
-4 -38 -4 0 -7 24 -7 53 1 54 5 49 11 -15z m311 -30 l12 -8 -30 1 c-16 0 -24
3 -17 6 l12 5 2 46 1 47 4 -45 c3 -24 10 -48 16 -52z m77 62 c-4 -3 -10 -14
-13 -25 l-5 -20 -1 38 -1 38 14 -13 c8 -7 10 -15 6 -18z m90 15 c0 -8 -7 -15
-15 -15 l-16 0 13 15 c16 18 18 18 18 0z m-3933 -27 c-3 -7 -5 -2 -5 12 0 14
2 19 5 13 2 -7 2 -19 0 -25z m856 -50 l12 -8 -30 1 c-16 0 -24 3 -17 6 l12 5
2 41 1 42 4 -40 c3 -22 10 -43 16 -47z m465 64 c-9 -2 -19 -11 -21 -20 l-5
-17 -1 27 -1 26 23 -6 22 -6 -17 -4z m474 -1 c-5 -3 -12 -13 -15 -21 l-5 -15
-1 27 -1 27 16 -6 16 -6 -10 -6z m-1615 -23 c-3 -7 -5 -2 -5 12 0 14 2 19 5
13 2 -7 2 -19 0 -25z m1290 15 c-4 -3 -7 0 -7 7 0 7 3 10 7 7 3 -4 3 -10 0
-14z m930 -5 l-5 -13 -1 19 c-1 11 2 17 5 13 3 -3 4 -12 1 -19z m-1160 -35
c-4 -3 -7 0 -7 7 0 7 3 10 7 7 3 -4 3 -10 0 -14z m910 0 c-4 -3 -7 0 -7 7 0 7
3 10 7 7 3 -4 3 -10 0 -14z m1210 -5 l-5 -13 -1 19 c-1 11 2 17 5 13 3 -3 4
-12 1 -19z m-68 -30 l-1 -33 -7 25 c-5 14 -6 28 -4 33 9 15 13 6 12 -25z
m-3711 15 c-10 -2 -26 -2 -35 0 -10 3 -2 5 17 5 19 0 27 -2 18 -5z m3669 -69
c-3 -3 -12 -4 -19 -1 l-13 5 19 1 c11 1 17 -2 13 -5z" />
    <path d="M1775 1050 c-19 -38 -35 -79 -35 -90 l0 -20 85 0 85 0 0 15 c0 25
-74 165 -87 165 -7 0 -29 -31 -48 -70z" />
    <path d="M3732 1108 l3 -103 45 -2 c25 -1 67 1 94 4 l49 5 24 24 23 23 0 51 0
51 -25 24 -24 25 -96 0 -96 0 3 -102z" />
    <path d="M4495 1050 c-34 -68 -43 -104 -27 -114 4 -3 43 -2 85 1 l77 6 0 13
c0 25 -74 164 -87 164 -7 0 -29 -31 -48 -70z" />
  </g>
  <g transform="translate(0.000000,135.000000) scale(0.100000,-0.100000)" fill="#0bfbc6" stroke="none">
    <path d="M280 1327 c-30 -7 -70 -21 -88 -31 -52 -27 -112 -93 -140 -155 l-26
-56 -4 -58 -4 -58 12 -47 c28 -103 89 -174 190 -221 l55 -25 80 0 80 0 49 18
c27 10 67 29 88 42 l38 24 0 114 0 114 -14 11 c-8 7 -30 11 -48 9 l-33 -3 -12
-25 c-7 -14 -13 -53 -13 -86 l0 -62 -12 -10 c-7 -5 -38 -15 -69 -21 l-56 -12
-42 10 c-23 5 -59 21 -81 35 l-38 25 -27 56 -28 56 6 49 c7 58 24 95 64 134
38 39 88 59 148 58 l50 0 55 -21 c30 -12 64 -21 76 -21 23 0 54 29 54 51 0 49
-96 104 -196 113 l-59 5 -55 -12z" />
    <path d="M5224 1330 c-67 -14 -111 -36 -162 -85 l-49 -45 -28 -61 -27 -61 0
-67 c-1 -37 5 -85 12 -107 19 -59 57 -115 109 -157 l46 -37 64 -20 c76 -24
119 -25 149 -4 l22 15 0 29 0 29 -17 10 c-10 5 -44 14 -76 21 l-57 12 -43 31
-42 32 -22 45 -23 44 0 48 c0 55 21 112 53 146 12 13 40 33 61 44 l39 20 57 0
58 0 47 -21 c53 -24 95 -27 113 -9 7 7 12 27 12 45 l0 33 -40 25 c-45 28 -138
56 -185 54 -16 -1 -48 -5 -71 -9z" />
    <path d="M1020 1321 c-92 -30 -172 -98 -211 -179 l-23 -46 -4 -81 -4 -80 23
-60 22 -60 56 -56 56 -56 55 -18 55 -19 60 0 60 0 52 18 52 17 49 44 c26 24
61 67 77 97 l30 53 0 100 0 100 -27 52 c-34 64 -88 117 -153 151 l-50 25 -75
3 c-41 2 -86 0 -100 -5z m216 -47 c29 -13 57 -30 63 -38 l11 -13 -20 -26 c-11
-14 -43 -37 -72 -51 l-52 -26 -60 0 -61 0 -50 24 c-27 13 -61 35 -74 49 l-24
26 13 16 c19 23 85 55 133 65 61 13 135 3 193 -26z m-316 -109 l34 -35 53 -20
c65 -24 112 -25 182 -4 l53 15 45 42 45 41 15 -19 c8 -11 25 -40 36 -65 l22
-45 0 -80 0 -80 -23 -45 c-12 -25 -29 -53 -37 -63 l-14 -19 -34 34 c-37 37
-87 65 -138 75 l-32 6 4 -12 c3 -7 29 -21 58 -31 l53 -18 37 -36 36 -37 -20
-15 c-11 -9 -38 -25 -60 -36 l-40 -21 -76 -5 -77 -4 -53 25 c-30 13 -63 32
-74 40 l-20 16 36 37 37 36 53 18 c29 10 55 24 58 31 l4 12 -39 -8 c-51 -9
-84 -27 -130 -70 l-38 -36 -14 18 c-30 38 -55 109 -60 168 l-5 62 13 39 c14
46 58 124 68 124 5 0 23 -16 42 -35z" />
    <path d="M1776 1298 c-34 -53 -256 -532 -256 -553 0 -13 7 -31 16 -39 21 -21
67 -20 87 2 8 9 27 43 41 75 l25 57 158 0 159 0 22 16 22 15 0 26 c0 28 -161
377 -187 405 l-16 18 -28 0 -29 0 -14 -22z m124 -340 c0 -5 -34 -8 -75 -8
l-75 0 0 10 c0 6 16 43 36 82 l37 72 38 -74 c21 -41 38 -78 39 -82z" />
    <path d="M2317 1302 l-17 -19 0 -281 0 -281 16 -15 15 -16 85 0 c47 0 94 5
105 10 l19 11 0 34 0 34 -22 15 c-12 9 -39 16 -60 16 l-38 0 0 233 0 233 -16
22 -15 22 -28 0 -28 0 -16 -18z" />
    <path d="M3635 1300 l-18 -20 2 -283 2 -282 16 -12 c25 -19 60 -16 83 7 l20
20 0 90 0 90 63 0 63 0 17 -30 18 -30 25 -6 25 -7 26 12 25 12 -4 42 -4 42 23
18 c13 11 33 37 44 60 l21 40 -4 67 -3 67 -27 40 -26 40 -39 19 -38 19 -145 3
-146 3 -19 -21z m300 -125 l25 -24 0 -39 0 -40 -17 -21 -18 -22 -40 -9 c-22
-5 -62 -7 -90 -5 l-50 3 -3 91 -3 91 86 0 86 0 24 -25z" />
    <path d="M4496 1298 c-33 -51 -256 -532 -256 -553 0 -48 70 -74 103 -37 8 9
27 43 41 75 l25 57 164 0 164 0 16 18 c10 10 17 29 17 42 0 26 -162 374 -187
402 l-16 18 -28 0 -29 0 -14 -22z m122 -343 c-2 -1 -34 -5 -71 -8 l-68 -5 -5
13 c-3 7 11 46 32 86 l37 73 39 -78 c22 -43 38 -79 36 -81z" />
    <path d="M5730 1300 l-20 -20 0 -273 0 -273 16 -22 15 -22 93 0 93 0 16 18
c23 25 21 58 -3 82 l-20 20 -45 0 -45 0 0 239 0 240 -16 15 c-21 22 -60 20
-84 -4z" />
    <path d="M6310 1300 l-20 -20 0 -267 0 -268 13 -25 13 -25 183 -3 184 -2 18
16 c25 22 24 59 -1 84 l-20 20 -130 0 -130 0 0 70 0 70 111 0 110 0 20 10 19
11 0 29 c0 16 -7 36 -16 44 l-15 16 -115 0 -114 0 0 70 0 70 40 0 40 0 20 20
c24 24 25 48 4 78 l-15 22 -90 0 -89 0 -20 -20z" />
    <path d="M2886 1259 c-64 -50 -116 -166 -116 -257 0 -65 28 -144 70 -199 l36
-48 53 -32 c30 -18 79 -37 109 -44 l56 -11 49 5 c104 13 208 87 256 181 11 24
26 68 31 98 l10 54 -10 53 c-5 29 -22 75 -37 103 -31 57 -94 118 -123 118 -26
0 -60 -34 -60 -60 0 -11 16 -37 35 -59 46 -50 65 -98 65 -161 l0 -51 -16 -32
c-9 -18 -26 -43 -38 -55 -25 -28 -78 -57 -122 -66 -43 -9 -108 7 -154 39 l-39
27 -26 51 c-42 84 -31 152 40 242 l44 57 -6 16 c-11 30 -36 52 -58 52 -12 0
-34 -9 -49 -21z" />
  </g>
  <g transform="translate(0.000000,135.000000) scale(0.100000,-0.100000)" fill="#3cb59f" stroke="none">
    <path d="M348 1333 c12 -2 30 -2 40 0 9 3 -1 5 -23 4 l-40 0 23 -4z" />
    <path d="M3065 1315 c-14 -13 -25 -30 -25 -37 0 -8 7 -24 16 -36 l15 -22 29 0
c36 0 60 24 60 60 l0 29 -22 15 c-12 9 -28 16 -36 16 -7 0 -24 -11 -37 -25z" />
    <path d="M5278 1333 c12 -2 32 -2 45 0 12 2 2 4 -23 4 -25 0 -35 -2 -22 -4z" />
    <path d="M438 1323 c7 -3 16 -2 19 1 4 3 -2 6 -13 5 l-19 -1 13 -5z" />
    <path d="M1020 1321 c-35 -11 -90 -40 -123 -65 -15 -11 -43 -43 -62 -70 l-35
-51 7 -23 6 -23 17 38 c10 21 25 47 33 58 l16 20 38 -36 c48 -47 74 -59 104
-53 l24 6 -13 -10 -14 -9 24 -6 c12 -4 43 -6 68 -5 l45 1 -50 7 -50 8 69 -3
68 -2 -13 9 -14 10 24 -6 c30 -6 56 6 104 53 l38 36 16 -20 c8 -11 23 -37 33
-58 l17 -38 6 20 5 21 -11 -7 -10 -6 6 17 7 17 -12 -7 -11 -7 6 16 6 16 -21
28 c-12 15 -25 33 -30 38 l-9 10 6 -16 6 -16 -16 -6 -15 -6 4 23 4 24 -16 15
c-9 8 -37 25 -62 37 l-45 23 -75 3 c-41 2 -86 0 -100 -5z m135 -12 l-20 -9 33
5 33 5 49 -25 c27 -14 52 -30 56 -36 l7 -12 -13 8 -13 8 9 -14 c5 -8 9 -21 9
-29 1 -20 -33 -59 -65 -75 l-25 -12 -110 0 -110 0 -25 12 c-14 7 -38 27 -54
44 -17 17 -33 31 -38 31 -5 0 -22 -21 -38 -47 -17 -26 -30 -43 -30 -38 0 15
71 115 82 115 5 0 6 -4 3 -10 -10 -16 1 -11 16 7 l14 17 -15 -9 -15 -9 14 18
c8 9 20 15 28 12 l14 -6 -7 12 -7 11 17 -6 c9 -4 15 -3 12 2 -9 14 41 30 81
26 l38 -5 -25 9 -25 9 70 0 70 1 -20 -10z m215 -130 c15 -28 5 -23 -15 7 -9
15 -12 23 -6 20 6 -4 16 -16 21 -27z" />
    <path d="M1003 1293 c4 -3 10 -3 14 0 3 4 0 7 -7 7 -7 0 -10 -3 -7 -7z" />
    <path d="M1193 1293 c4 -3 10 -3 14 0 3 4 0 7 -7 7 -7 0 -10 -3 -7 -7z" />
    <path d="M1265 1260 c3 -5 8 -10 11 -10 3 0 2 5 -1 10 -3 6 -8 10 -11 10 -3 0
-2 -4 1 -10z" />
    <path d="M920 1185 c13 -14 26 -25 28 -25 3 0 -5 11 -18 25 -13 14 -26 25 -28
25 -3 0 5 -11 18 -25z" />
    <path d="M1246 1164 c-26 -19 -44 -34 -39 -34 11 0 93 57 93 65 0 7 2 8 -54
-31z" />
    <path d="M974 1146 c11 -9 24 -16 30 -16 12 0 7 5 -24 19 l-25 12 19 -15z" />
    <path d="M5373 1323 c4 -3 10 -3 14 0 3 4 0 7 -7 7 -7 0 -10 -3 -7 -7z" />
    <path d="M233 1313 c4 -3 10 -3 14 0 3 4 0 7 -7 7 -7 0 -10 -3 -7 -7z" />
    <path d="M1779 1303 l-14 -18 20 15 c11 8 22 16 24 17 2 2 0 3 -6 3 -6 0 -17
-8 -24 -17z" />
    <path d="M2371 1317 c2 -1 13 -9 24 -17 l20 -15 -14 18 c-7 9 -18 17 -24 17
-6 0 -8 -1 -6 -3z" />
    <path d="M3908 1313 c7 -3 16 -2 19 1 4 3 -2 6 -13 5 l-19 -1 13 -5z" />
    <path d="M4499 1303 l-14 -18 20 15 c11 8 22 16 24 17 2 2 0 3 -6 3 -6 0 -17
-8 -24 -17z" />
    <path d="M5403 1313 c4 -3 10 -3 14 0 3 4 0 7 -7 7 -7 0 -10 -3 -7 -7z" />
    <path d="M5783 1313 c4 -3 10 -3 14 0 3 4 0 7 -7 7 -7 0 -10 -3 -7 -7z" />
    <path d="M6491 1317 c2 -1 13 -9 24 -17 l20 -15 -14 18 c-7 9 -18 17 -24 17
-6 0 -8 -1 -6 -3z" />
    <path d="M6617 1302 c-10 -10 -17 -30 -17 -45 l0 -26 22 -15 c12 -9 30 -16 38
-16 25 0 48 22 55 52 l7 26 -21 21 c-26 26 -62 27 -84 3z" />
    <path d="M5430 1306 c0 -2 7 -7 16 -10 l15 -6 -6 10 c-6 10 -25 14 -25 6z" />
    <path d="M5724 1298 l-7 -11 11 7 c12 7 16 16 8 16 -3 0 -8 -5 -12 -12z" />
    <path d="M6304 1298 l-7 -11 11 7 c12 7 16 16 8 16 -3 0 -8 -5 -12 -12z" />
    <path d="M3970 1296 c0 -2 7 -7 16 -10 l15 -6 -6 10 c-6 10 -25 14 -25 6z" />
    <path d="M5114 1288 l-7 -11 11 7 c12 7 16 16 8 16 -3 0 -8 -5 -12 -12z" />
    <path d="M164 1278 l-7 -11 11 7 c12 7 16 16 8 16 -3 0 -8 -5 -12 -12z" />
    <path d="M545 1280 c3 -5 8 -10 11 -10 3 0 2 5 -1 10 -3 6 -8 10 -11 10 -3 0
-2 -4 1 -10z" />
    <path d="M2415 1043 l0 -238 40 -1 40 -1 -37 4 -38 4 -3 235 -3 234 1 -237z" />
    <path d="M2923 1273 c9 -2 23 -2 30 0 6 3 -1 5 -18 5 l-30 0 18 -5z" />
    <path d="M3273 1273 c4 -3 10 -3 14 0 3 4 0 7 -7 7 -7 0 -10 -3 -7 -7z" />
    <path d="M4010 1276 c0 -2 8 -10 18 -17 l17 -14 -14 18 c-13 16 -21 21 -21 13z" />
    <path d="M5079 1263 l-14 -18 18 14 c9 7 17 15 17 17 0 8 -8 3 -21 -13z" />
    <path d="M5501 1263 c7 -12 15 -20 18 -17 3 2 -3 12 -13 22 l-18 17 13 -22z" />
    <path d="M5714 1005 c0 -154 2 -216 3 -137 2 79 2 205 0 280 -1 75 -3 11 -3
-143z" />
    <path d="M6294 1010 c0 -151 2 -213 3 -137 2 75 2 199 0 275 -1 75 -3 13 -3
-138z" />
    <path d="M6532 1260 c0 -14 2 -19 5 -12 2 6 2 18 0 25 -3 6 -5 1 -5 -13z" />
    <path d="M2864 1238 l-29 -33 33 29 c30 28 37 36 29 36 -2 0 -16 -15 -33 -32z" />
    <path d="M3224 1258 l-7 -11 11 7 c12 7 16 16 8 16 -3 0 -8 -5 -12 -12z" />
    <path d="M114 1238 l-19 -23 23 19 c12 11 22 21 22 23 0 8 -8 2 -26 -19z" />
    <path d="M582 1220 c0 -14 2 -19 5 -12 2 6 2 18 0 25 -3 6 -5 1 -5 -13z" />
    <path d="M3612 1200 c0 -19 2 -27 5 -17 2 9 2 25 0 35 -3 9 -5 1 -5 -18z" />
    <path d="M6514 1218 l-7 -11 11 7 c12 7 16 16 8 16 -3 0 -8 -5 -12 -12z" />
    <path d="M318 1213 c7 -3 16 -2 19 1 4 3 -2 6 -13 5 l-19 -1 13 -5z" />
    <path d="M368 1213 c6 -2 18 -2 25 0 6 3 1 5 -13 5 -14 0 -19 -2 -12 -5z" />
    <path d="M5019 1203 l-14 -18 18 14 c9 7 17 15 17 17 0 8 -8 3 -21 -13z" />
    <path d="M5248 1213 c6 -2 18 -2 25 0 6 3 1 5 -13 5 -14 0 -19 -2 -12 -5z" />
    <path d="M5308 1213 c7 -3 16 -2 19 1 4 3 -2 6 -13 5 l-19 -1 13 -5z" />
    <path d="M423 1203 c4 -3 10 -3 14 0 3 4 0 7 -7 7 -7 0 -10 -3 -7 -7z" />
    <path d="M3737 1203 c-10 -9 -9 -193 1 -193 4 0 6 43 4 95 l-3 94 73 4 73 3
-71 2 c-39 1 -74 -1 -77 -5z" />
    <path d="M6483 1203 c4 -3 10 -3 14 0 3 4 0 7 -7 7 -7 0 -10 -3 -7 -7z" />
    <path d="M2824 1188 l-7 -11 11 7 c12 7 16 16 8 16 -3 0 -8 -5 -12 -12z" />
    <path d="M6413 1130 c0 -41 2 -58 4 -37 2 20 2 54 0 75 -2 20 -4 3 -4 -38z" />
    <path d="M214 1168 l-7 -11 11 7 c12 7 16 16 8 16 -3 0 -8 -5 -12 -12z" />
    <path d="M2804 1158 l-7 -11 11 7 c12 7 16 16 8 16 -3 0 -8 -5 -12 -12z" />
    <path d="M184 1138 l-7 -11 11 7 c12 7 16 16 8 16 -3 0 -8 -5 -12 -12z" />
    <path d="M2929 1133 l-14 -18 18 14 c9 7 17 15 17 17 0 8 -8 3 -21 -13z" />
    <path d="M1814 1108 l-7 -11 11 7 c12 7 16 16 8 16 -3 0 -8 -5 -12 -12z" />
    <path d="M3961 1104 l1 -19 5 13 c3 7 2 16 -1 19 -3 4 -6 -2 -5 -13z" />
    <path d="M4534 1108 l-7 -11 11 7 c12 7 16 16 8 16 -3 0 -8 -5 -12 -12z" />
    <path d="M790 1100 c0 -7 3 -10 7 -7 3 4 3 10 0 14 -4 3 -7 0 -7 -7z" />
    <path d="M1410 1100 c0 -7 3 -10 7 -7 3 4 3 10 0 14 -4 3 -7 0 -7 -7z" />
    <path d="M3420 1080 c0 -7 3 -10 7 -7 3 4 3 10 0 14 -4 3 -7 0 -7 -7z" />
    <path d="M4960 1080 c0 -7 3 -10 7 -7 3 4 3 10 0 14 -4 3 -7 0 -7 -7z" />
    <path d="M800 1070 c0 -7 3 -10 7 -7 3 4 3 10 0 14 -4 3 -7 0 -7 -7z" />
    <path d="M1401 1064 l1 -19 5 13 c3 7 2 16 -1 19 -3 4 -6 -2 -5 -13z" />
    <path d="M3300 1070 c0 -7 3 -10 7 -7 3 4 3 10 0 14 -4 3 -7 0 -7 -7z" />
    <path d="M22 1045 l0 -30 5 18 c2 9 2 23 0 30 -3 6 -5 -1 -5 -18z" />
    <path d="M781 1054 l1 -19 5 13 c3 7 2 16 -1 19 -3 4 -6 -2 -5 -13z" />
    <path d="M1421 1054 l1 -19 5 13 c3 7 2 16 -1 19 -3 4 -6 -2 -5 -13z" />
    <path d="M4070 1060 c0 -7 3 -10 7 -7 3 4 3 10 0 14 -4 3 -7 0 -7 -7z" />
    <path d="M140 1050 c0 -7 3 -10 7 -7 3 4 3 10 0 14 -4 3 -7 0 -7 -7z" />
    <path d="M2771 1044 l1 -19 5 13 c3 7 2 16 -1 19 -3 4 -6 -2 -5 -13z" />
    <path d="M2890 1050 c0 -7 3 -10 7 -7 3 4 3 10 0 14 -4 3 -7 0 -7 -7z" />
    <path d="M3934 1038 l-7 -11 11 7 c12 7 16 16 8 16 -3 0 -8 -5 -12 -12z" />
    <path d="M3313 1005 l0 -40 4 23 c2 12 2 30 0 40 -3 9 -5 -1 -4 -23z" />
    <path d="M5072 1010 c0 -19 2 -27 5 -17 2 9 2 25 0 35 -3 9 -5 1 -5 -18z" />
    <path d="M3432 1005 l0 -30 5 18 c2 9 2 23 0 30 -3 6 -5 -1 -5 -18z" />
    <path d="M792 995 l0 -30 5 18 c2 9 2 23 0 30 -3 6 -5 -1 -5 -18z" />
    <path d="M1412 995 l0 -30 5 18 c2 9 2 23 0 30 -3 6 -5 -1 -5 -18z" />
    <path d="M3773 1013 c9 -2 23 -2 30 0 6 3 -1 5 -18 5 l-30 0 18 -5z" />
    <path d="M3868 1013 c6 -2 18 -2 25 0 6 3 1 5 -13 5 -14 0 -19 -2 -12 -5z" />
    <path d="M4951 1004 l1 -19 5 13 c3 7 2 16 -1 19 -3 4 -6 -2 -5 -13z" />
    <path d="M336 997 l-18 -14 0 -28 0 -29 22 -18 c27 -22 39 -22 68 -2 l22 15 0
29 c0 16 -7 36 -16 44 -19 19 -54 21 -78 3z" />
    <path d="M509 993 l-14 -18 18 14 c16 13 21 21 13 21 -2 0 -10 -8 -17 -17z" />
    <path d="M580 1006 c0 -2 8 -10 18 -17 l17 -14 -14 18 c-13 16 -21 21 -21 13z" />
    <path d="M4034 988 l-7 -11 11 7 c12 7 16 16 8 16 -3 0 -8 -5 -12 -12z" />
    <path d="M22 960 c0 -14 2 -19 5 -12 2 6 2 18 0 25 -3 6 -5 1 -5 -13z" />
    <path d="M2772 960 c0 -14 2 -19 5 -12 2 6 2 18 0 25 -3 6 -5 1 -5 -13z" />
    <path d="M6664 968 l-7 -11 11 7 c12 7 16 16 8 16 -3 0 -8 -5 -12 -12z" />
    <path d="M4004 958 l-7 -11 11 7 c12 7 16 16 8 16 -3 0 -8 -5 -12 -12z" />
    <path d="M490 893 l-5 -72 8 8 c4 4 7 37 5 72 l-3 64 -5 -72z" />
    <path d="M1740 948 c0 -5 38 -8 85 -8 47 0 85 3 85 8 0 4 -38 7 -85 7 -47 0
-85 -3 -85 -7z" />
    <path d="M4460 950 c0 -5 5 -10 11 -10 5 0 7 5 4 10 -3 6 -8 10 -11 10 -2 0
-4 -4 -4 -10z" />
    <path d="M781 934 l1 -19 5 13 c3 7 2 16 -1 19 -3 4 -6 -2 -5 -13z" />
    <path d="M1421 934 l1 -19 5 13 c3 7 2 16 -1 19 -3 4 -6 -2 -5 -13z" />
    <path d="M4538 943 c17 -2 47 -2 65 0 17 2 3 4 -33 4 -36 0 -50 -2 -32 -4z" />
    <path d="M5080 940 c0 -7 3 -10 7 -7 3 4 3 10 0 14 -4 3 -7 0 -7 -7z" />
    <path d="M6412 878 l-2 -78 138 2 137 2 -132 3 -132 4 -4 72 -3 72 -2 -77z" />
    <path d="M801 924 l1 -19 5 13 c3 7 2 16 -1 19 -3 4 -6 -2 -5 -13z" />
    <path d="M1401 924 l1 -19 5 13 c3 7 2 16 -1 19 -3 4 -6 -2 -5 -13z" />
    <path d="M4960 930 c0 -7 3 -10 7 -7 3 4 3 10 0 14 -4 3 -7 0 -7 -7z" />
    <path d="M3734 820 c0 -52 1 -74 3 -47 2 26 2 68 0 95 -2 26 -3 4 -3 -48z" />
    <path d="M806 885 c-9 -26 -7 -32 5 -12 6 10 9 21 6 23 -2 3 -7 -2 -11 -11z" />
    <path d="M1008 887 c-40 -15 -118 -73 -118 -88 l0 -9 -27 4 -26 5 39 -40 c21
-21 59 -49 83 -61 l45 -22 85 -1 86 -2 48 14 48 15 52 50 c28 27 46 46 38 42
l-14 -7 5 14 c3 8 11 14 19 14 l14 0 -3 19 -3 18 10 -7 11 -6 -6 16 -7 16 -25
-38 c-14 -21 -26 -40 -28 -42 -1 -1 -18 12 -37 31 -19 19 -51 43 -73 53 l-39
19 -70 3 -70 3 -37 -13z m148 -7 l-14 -5 51 -16 51 -17 -19 14 c-10 8 -15 14
-11 14 13 0 70 -42 92 -68 l21 -25 14 8 14 9 -15 -19 c-20 -24 -90 -75 -104
-75 -6 0 4 9 22 20 45 28 40 33 -7 7 -22 -12 -37 -25 -34 -30 2 -4 -8 -5 -24
-2 l-28 7 12 -9 11 -8 -83 0 -83 0 5 9 6 8 -23 -7 -23 -7 6 9 c3 4 -12 18 -34
30 -47 26 -52 21 -6 -7 17 -11 27 -20 21 -20 -13 0 -84 50 -103 74 l-14 16 16
-5 15 -6 13 18 c16 22 82 73 94 73 5 0 0 -6 -10 -14 l-19 -14 51 17 51 16 -14
5 c-7 3 16 5 51 5 35 0 58 -2 51 -5z m-129 -7 c-4 -3 -10 -3 -14 0 -3 4 0 7 7
7 7 0 10 -3 7 -7z m170 0 c-4 -3 -10 -3 -14 0 -3 4 0 7 7 7 7 0 10 -3 7 -7z" />
    <path d="M920 805 l-34 -35 13 -13 14 -12 -8 13 -7 14 33 34 c18 19 31 34 28
34 -3 0 -20 -16 -39 -35z" />
    <path d="M1279 808 l33 -36 -7 -14 -8 -13 14 13 13 12 -39 38 -40 37 34 -37z" />
    <path d="M1390 895 c0 -5 4 -16 9 -23 l8 -14 7 18 c3 9 4 19 1 22 -3 3 -5 -1
-5 -9 l0 -14 -10 15 c-5 8 -10 11 -10 5z" />
    <path d="M3875 890 c3 -5 8 -10 11 -10 3 0 2 5 -1 10 -3 6 -8 10 -11 10 -3 0
-2 -4 1 -10z" />
    <path d="M40 880 c0 -7 3 -10 7 -7 3 4 3 10 0 14 -4 3 -7 0 -7 -7z" />
    <path d="M175 880 c3 -5 8 -10 11 -10 3 0 2 5 -1 10 -3 6 -8 10 -11 10 -3 0
-2 -4 1 -10z" />
    <path d="M2925 880 c3 -5 8 -10 11 -10 3 0 2 5 -1 10 -3 6 -8 10 -11 10 -3 0
-2 -4 1 -10z" />
    <path d="M817 857 l-5 -14 13 0 13 0 -5 14 c-3 7 -6 13 -8 13 -2 0 -5 -6 -8
-13z" />
    <path d="M3244 848 l-19 -23 23 19 c21 18 27 26 19 26 -2 0 -12 -10 -23 -22z" />
    <path d="M3895 860 c3 -5 8 -10 11 -10 3 0 2 5 -1 10 -3 6 -8 10 -11 10 -3 0
-2 -4 1 -10z" />
    <path d="M3984 858 l-7 -11 11 7 c12 7 16 16 8 16 -3 0 -8 -5 -12 -12z" />
    <path d="M2805 850 c3 -5 8 -10 11 -10 3 0 2 5 -1 10 -3 6 -8 10 -11 10 -3 0
-2 -4 1 -10z" />
    <path d="M5135 850 c3 -5 8 -10 11 -10 3 0 2 5 -1 10 -3 6 -8 10 -11 10 -3 0
-2 -4 1 -10z" />
    <path d="M2960 846 c0 -2 8 -10 18 -17 l17 -14 -14 18 c-13 16 -21 21 -21 13z" />
    <path d="M4723 843 c4 -3 10 -3 14 0 3 4 0 7 -7 7 -7 0 -10 -3 -7 -7z" />
    <path d="M5429 829 l-21 -21 7 -26 c7 -30 30 -52 55 -52 8 0 26 7 38 16 l22
15 0 28 0 28 -18 16 c-25 23 -58 21 -83 -4z" />
    <path d="M225 830 c3 -5 8 -10 11 -10 3 0 2 5 -1 10 -3 6 -8 10 -11 10 -3 0
-2 -4 1 -10z" />
    <path d="M824 822 c4 -3 14 -7 22 -8 9 -1 13 0 10 4 -4 3 -14 7 -22 8 -9 1
-13 0 -10 -4z" />
    <path d="M5175 820 c3 -5 8 -10 11 -10 3 0 2 5 -1 10 -3 6 -8 10 -11 10 -3 0
-2 -4 1 -10z" />
    <path d="M3364 808 l-7 -11 11 7 c12 7 16 16 8 16 -3 0 -8 -5 -12 -12z" />
    <path d="M80 806 c0 -2 8 -10 18 -17 l17 -14 -14 18 c-13 16 -21 21 -21 13z" />
    <path d="M433 803 c4 -3 10 -3 14 0 3 4 0 7 -7 7 -7 0 -10 -3 -7 -7z" />
    <path d="M2032 794 l-22 -15 0 -29 c0 -35 23 -60 56 -60 27 0 64 32 64 55 0
19 -44 65 -62 65 -8 0 -24 -7 -36 -16z" />
    <path d="M2630 792 l-22 -18 0 -29 0 -28 18 -14 c24 -18 59 -16 78 3 9 8 16
28 16 44 l0 29 -22 15 c-29 20 -41 20 -68 -2z" />
    <path d="M4004 785 l-25 -25 6 -23 c9 -28 33 -47 61 -47 31 0 54 26 54 60 l0
29 -22 15 c-12 9 -28 16 -36 16 -7 0 -24 -11 -38 -25z" />
    <path d="M4752 794 l-22 -15 0 -29 c0 -35 23 -60 56 -60 27 0 64 32 64 55 0
19 -44 65 -62 65 -8 0 -24 -7 -36 -16z" />
    <path d="M5853 803 c15 -2 37 -2 50 0 12 2 0 4 -28 4 -27 0 -38 -2 -22 -4z" />
    <path d="M6040 790 c-24 -24 -25 -48 -4 -78 l15 -22 29 0 29 0 15 22 c9 12 16
30 16 40 0 24 -35 58 -60 58 -11 0 -29 -9 -40 -20z" />
    <path d="M308 793 c7 -3 16 -2 19 1 4 3 -2 6 -13 5 l-19 -1 13 -5z" />
    <path d="M388 793 c7 -3 16 -2 19 1 4 3 -2 6 -13 5 l-19 -1 13 -5z" />
    <path d="M2840 797 c0 -2 15 -16 33 -33 l32 -29 -29 33 c-28 30 -36 37 -36 29z" />
    <path d="M3058 793 c7 -3 16 -2 19 1 4 3 -2 6 -13 5 l-19 -1 13 -5z" />
    <path d="M3133 793 c4 -3 10 -3 14 0 3 4 0 7 -7 7 -7 0 -10 -3 -7 -7z" />
    <path d="M5935 790 c3 -5 8 -10 11 -10 3 0 2 5 -1 10 -3 6 -8 10 -11 10 -3 0
-2 -4 1 -10z" />
    <path d="M6695 790 c3 -5 8 -10 11 -10 3 0 2 5 -1 10 -3 6 -8 10 -11 10 -3 0
-2 -4 1 -10z" />
    <path d="M5273 783 c4 -3 10 -3 14 0 3 4 0 7 -7 7 -7 0 -10 -3 -7 -7z" />
    <path d="M1520 770 c0 -7 3 -10 7 -7 3 4 3 10 0 14 -4 3 -7 0 -7 -7z" />
    <path d="M4240 770 c0 -7 3 -10 7 -7 3 4 3 10 0 14 -4 3 -7 0 -7 -7z" />
    <path d="M589 753 l-14 -18 18 14 c16 13 21 21 13 21 -2 0 -10 -8 -17 -17z" />
    <path d="M5345 760 c3 -5 8 -10 11 -10 3 0 2 5 -1 10 -3 6 -8 10 -11 10 -3 0
-2 -4 1 -10z" />
    <path d="M5950 760 c0 -7 3 -10 7 -7 3 4 3 10 0 14 -4 3 -7 0 -7 -7z" />
    <path d="M6710 760 c0 -7 3 -10 7 -7 3 4 3 10 0 14 -4 3 -7 0 -7 -7z" />
    <path d="M135 750 c3 -5 8 -10 11 -10 3 0 2 5 -1 10 -3 6 -8 10 -11 10 -3 0
-2 -4 1 -10z" />
    <path d="M3284 728 l-7 -11 11 7 c12 7 16 16 8 16 -3 0 -8 -5 -12 -12z" />
    <path d="M5950 730 c0 -7 3 -10 7 -7 3 4 3 10 0 14 -4 3 -7 0 -7 -7z" />
    <path d="M1624 718 l-7 -11 11 7 c12 7 16 16 8 16 -3 0 -8 -5 -12 -12z" />
    <path d="M4344 718 l-7 -11 11 7 c12 7 16 16 8 16 -3 0 -8 -5 -12 -12z" />
    <path d="M2524 708 l-7 -11 11 7 c12 7 16 16 8 16 -3 0 -8 -5 -12 -12z" />
    <path d="M3625 710 c3 -5 8 -10 11 -10 3 0 2 5 -1 10 -3 6 -8 10 -11 10 -3 0
-2 -4 1 -10z" />
    <path d="M3714 708 l-7 -11 11 7 c12 7 16 16 8 16 -3 0 -8 -5 -12 -12z" />
    <path d="M318 673 c7 -3 16 -2 19 1 4 3 -2 6 -13 5 l-19 -1 13 -5z" />
    <path d="M373 673 c9 -2 23 -2 30 0 6 3 -1 5 -18 5 l-30 0 18 -5z" />
    <path d="M3068 673 c6 -2 18 -2 25 0 6 3 1 5 -13 5 -14 0 -19 -2 -12 -5z" />
    <path d="M3123 673 c9 -2 23 -2 30 0 6 3 -1 5 -18 5 l-30 0 18 -5z" />
    <path d="M5248 673 c6 -2 18 -2 25 0 6 3 1 5 -13 5 -14 0 -19 -2 -12 -5z" />
    <path d="M5298 673 c7 -3 16 -2 19 1 4 3 -2 6 -13 5 l-19 -1 13 -5z" />
    <path d="M1088 663 c12 -2 30 -2 40 0 9 3 -1 5 -23 4 l-40 0 23 -4z" />
    <path d="M1550 325 c0 -8 5 -15 10 -15 l10 0 0 -85 0 -85 -10 0 c-5 0 -10 -7
-10 -15 l0 -15 40 0 40 0 0 10 c0 6 -7 13 -15 16 l-15 6 0 99 0 99 -25 0 -25
0 0 -15z" />
    <path d="M1995 330 c-3 -6 1 -13 9 -16 l16 -6 0 -84 0 -84 -10 0 c-5 0 -10 -7
-10 -15 l0 -15 30 0 31 0 -7 35 -6 35 9 0 c5 0 24 -16 43 -35 19 -19 42 -35
52 -35 10 0 18 3 18 6 0 4 -17 22 -37 40 l-38 34 33 30 c17 16 32 32 32 35 0
3 -14 5 -31 5 l-31 0 5 -14 c6 -15 -22 -46 -41 -46 l-12 0 0 70 0 70 -24 0
c-14 0 -28 -5 -31 -10z" />
    <path d="M2370 325 c0 -8 5 -15 10 -15 l10 0 0 -84 0 -84 -15 -6 c-8 -3 -15
-10 -15 -16 l0 -10 40 0 40 0 0 15 c0 8 -4 15 -10 15 l-10 0 0 44 0 45 20 6
21 7 14 -12 15 -12 0 -39 c0 -22 -4 -39 -10 -39 -5 0 -10 -7 -10 -15 l0 -15
35 0 35 0 0 15 c0 8 -4 15 -10 15 -5 0 -10 15 -10 34 0 19 -4 46 -9 59 -11 28
-46 41 -73 26 l-18 -10 0 46 0 45 -25 0 -25 0 0 -15z" />
    <path d="M4146 325 c-9 -9 -16 -27 -16 -41 l0 -24 -15 0 c-8 0 -15 -4 -15 -10
0 -5 7 -10 15 -10 l15 0 0 -50 0 -50 -10 0 c-5 0 -10 -7 -10 -15 l0 -15 35 0
35 0 0 15 c0 8 -4 15 -10 15 l-10 0 0 49 0 49 23 7 22 8 -22 4 -23 4 0 18 c0
10 6 24 14 30 l13 11 18 -6 18 -7 -5 14 c-2 8 -16 15 -30 17 l-25 3 -17 -16z" />
    <path d="M4400 325 c0 -8 5 -15 10 -15 l10 0 0 -85 0 -85 -10 0 c-5 0 -10 -7
-10 -15 l0 -15 35 0 35 0 0 15 c0 8 -4 15 -10 15 l-10 0 0 44 0 45 20 6 21 7
14 -12 15 -12 0 -39 c0 -22 -4 -39 -10 -39 -5 0 -10 -7 -10 -15 l0 -15 35 0
35 0 0 15 c0 8 -4 15 -10 15 -5 0 -10 18 -10 39 0 53 -8 71 -37 82 l-24 9 -20
-10 -19 -11 0 46 0 45 -25 0 -25 0 0 -15z" />
    <path d="M1135 303 c2 -16 7 -54 10 -85 l6 -57 20 -25 20 -26 38 0 38 0 23 25
23 24 5 76 c2 41 9 75 13 75 5 0 9 5 9 10 l0 10 -40 0 -40 0 0 -10 c0 -5 7
-10 16 -10 l16 0 -4 -76 -3 -75 -15 -9 c-21 -14 -64 -12 -78 2 l-12 12 0 73 0
73 10 0 c6 0 10 5 10 10 0 6 -16 10 -35 10 l-34 0 4 -27z" />
    <path d="M2277 303 c-4 -3 -7 -14 -7 -24 0 -9 -6 -20 -12 -22 l-13 -5 12 -9
12 -8 3 -60 3 -60 33 -3 32 -3 0 10 c0 6 -9 11 -20 11 l-20 0 0 55 0 55 15 0
c8 0 15 5 15 10 0 6 -7 10 -15 10 l-15 0 0 25 c0 24 -10 32 -23 18z" />
    <path d="M3627 303 c-4 -3 -7 -13 -7 -21 0 -8 -8 -21 -17 -28 l-18 -13 17 -1
17 0 3 -62 3 -63 33 -3 32 -3 0 10 c0 6 -9 11 -20 11 l-20 0 0 55 0 55 15 0
c8 0 15 5 15 10 0 6 -7 10 -15 10 l-15 0 0 25 c0 24 -10 32 -23 18z" />
    <path d="M4307 303 c-4 -3 -7 -14 -7 -24 0 -9 -6 -20 -12 -22 l-13 -5 12 -9
12 -8 3 -60 3 -60 33 -3 32 -3 0 10 c0 6 -9 11 -20 11 l-20 0 0 54 0 54 23 7
22 8 -22 4 -23 4 0 25 c0 23 -10 31 -23 17z" />
    <path d="M1436 262 c-3 -3 -24 -5 -46 -4 l-40 2 0 -10 c0 -6 5 -10 10 -10 l10
0 0 -49 c0 -28 -4 -53 -10 -56 -21 -13 -9 -25 25 -25 l35 0 0 15 c0 8 -4 15
-10 15 l-10 0 0 45 0 45 24 6 c14 3 30 3 35 -1 14 -8 14 -92 1 -100 -21 -13
-9 -25 25 -25 l35 0 0 15 c0 8 -4 15 -10 15 l-10 0 0 48 c0 26 -4 52 -8 58 -8
13 -48 24 -56 16z" />
    <path d="M1688 255 c-15 -9 -31 -27 -34 -40 -8 -31 1 -69 22 -89 l15 -16 35 0
34 0 20 20 20 20 0 38 0 39 -17 16 c-10 8 -29 18 -43 21 l-25 6 -27 -15z m70
-27 c7 -7 12 -26 12 -43 0 -52 -36 -71 -72 -38 -20 18 -23 45 -8 74 l11 19 22
0 c13 0 28 -5 35 -12z" />
    <path d="M1874 258 c-25 -11 -44 -48 -44 -82 0 -12 9 -32 20 -44 l21 -22 33 0
33 0 17 19 17 19 -13 5 c-7 2 -21 -3 -31 -11 l-18 -16 -16 10 c-9 6 -21 18
-27 27 l-10 16 10 28 9 28 24 3 c13 2 28 -1 34 -7 15 -15 37 -14 37 2 0 7 -15
18 -33 25 -38 14 -35 14 -63 0z" />
    <path d="M2610 257 c-14 -7 -30 -24 -37 -38 l-12 -25 10 -37 10 -37 23 -6 c35
-8 79 -1 84 15 l4 13 -31 -7 -32 -7 -20 18 c-10 9 -19 21 -19 26 0 4 25 8 55
8 l55 0 0 23 c0 12 -4 27 -8 33 -6 10 -45 34 -54 34 -2 0 -14 -6 -28 -13z m54
-32 l5 -15 -25 -6 -25 -7 -11 11 c-6 6 -7 15 -4 21 10 16 53 13 60 -4z" />
    <path d="M2826 257 l-18 -13 4 -25 3 -24 38 -18 c20 -9 37 -22 37 -27 0 -18
-30 -23 -56 -10 -30 17 -44 5 -18 -15 25 -19 78 -19 94 0 19 23 7 49 -32 68
-21 10 -38 25 -38 33 l0 14 19 0 c11 0 23 -4 26 -10 9 -15 35 -12 35 3 0 14
-40 37 -64 37 -6 0 -20 -6 -30 -13z" />
    <path d="M2993 260 c-12 -5 -26 -18 -32 -29 -16 -28 -13 -73 5 -99 l15 -22 34
0 c39 0 65 8 65 22 l0 9 -33 -6 -34 -7 -16 17 c-10 9 -17 20 -17 25 0 5 24 10
53 12 l52 3 -3 25 c-3 26 -36 60 -56 59 -6 0 -21 -4 -33 -9z m54 -36 c5 -15
-20 -24 -45 -17 l-21 5 6 15 6 14 25 -3 c14 -2 27 -8 29 -14z" />
    <path d="M3148 240 l-30 -31 6 -31 c3 -18 14 -40 23 -50 l16 -18 32 0 32 0 18
20 18 20 -11 0 c-6 0 -23 -5 -36 -12 l-26 -11 -20 18 c-22 20 -25 46 -10 76
l11 19 24 0 c13 0 27 -4 30 -10 9 -15 35 -12 35 3 0 15 -41 37 -66 37 -9 0
-29 -14 -46 -30z" />
    <path d="M3387 264 c-3 -4 -27 -6 -52 -6 l-45 1 0 -9 c0 -6 5 -10 10 -10 l10
0 0 -50 0 -50 -10 0 c-5 0 -10 -7 -10 -15 l0 -15 35 0 35 0 0 15 c0 8 -4 15
-10 15 -5 0 -10 18 -10 39 l0 40 13 8 c6 4 20 6 30 5 l17 -3 0 20 c0 22 -3 25
-13 15z" />
    <path d="M3473 260 c-12 -5 -26 -18 -32 -29 -16 -28 -13 -73 5 -99 l15 -22 34
0 c39 0 65 8 65 22 l0 9 -33 -6 -34 -7 -16 17 c-10 9 -17 20 -17 25 0 5 24 10
53 12 l52 3 -3 25 c-3 26 -36 60 -56 59 -6 0 -21 -4 -33 -9z m54 -36 c5 -15
-25 -26 -48 -19 l-18 6 6 15 6 15 25 -3 c14 -2 27 -8 29 -14z" />
    <path d="M3738 259 l-18 -10 0 -24 0 -25 40 -20 c22 -11 40 -27 40 -35 l0 -15
-20 0 c-11 0 -29 5 -40 12 -26 16 -39 2 -14 -17 25 -19 78 -19 94 0 19 23 7
49 -33 70 -20 11 -37 26 -37 33 l0 12 25 0 c14 0 25 -4 25 -10 0 -5 7 -10 15
-10 24 0 17 26 -10 38 -31 14 -45 15 -67 1z" />
    <path d="M3980 263 c-8 -3 -23 -12 -32 -21 l-18 -15 0 -42 0 -42 18 -16 19
-17 36 0 36 0 20 26 c12 15 21 35 21 45 0 31 -21 66 -47 78 -26 12 -30 12 -53
4z m61 -47 l12 -25 -7 -25 -6 -26 -25 -6 -25 -6 -15 12 -15 12 0 32 c0 38 15
56 47 56 l23 0 11 -24z" />
    <path d="M4640 257 c-14 -7 -30 -24 -37 -38 l-12 -25 10 -37 10 -37 23 -6 c35
-8 79 -1 84 15 l5 14 -28 -7 -27 -7 -24 16 c-13 8 -24 20 -24 25 l0 10 55 0
55 0 0 23 c0 12 -4 27 -8 33 -6 10 -45 34 -54 34 -2 0 -14 -6 -28 -13z m54
-32 l5 -15 -25 -6 -25 -7 -11 11 c-6 6 -7 15 -4 21 10 16 53 13 60 -4z" />
    <path d="M4885 261 c-33 -14 -49 -40 -48 -78 l1 -34 18 -20 17 -19 34 0 34 0
-3 -17 -3 -18 -41 0 c-23 0 -42 -4 -43 -10 -2 -5 13 -14 33 -19 l35 -9 25 17
26 16 1 38 c0 20 1 63 2 95 l2 57 -15 0 c-8 0 -24 2 -35 5 -11 2 -29 0 -40 -4z
m63 -64 l3 -38 -12 -15 c-18 -22 -51 -13 -68 17 l-15 27 18 26 17 27 27 -3 27
-3 3 -38z" />
    <path d="M5043 260 c-35 -14 -27 -27 14 -26 l37 1 4 -17 3 -18 -30 0 c-36 0
-61 -23 -61 -55 l0 -24 18 -5 c9 -3 41 -5 70 -5 49 0 65 10 42 24 -5 3 -10 26
-10 51 l0 44 -20 20 c-22 22 -33 23 -67 10z m55 -102 l-3 -23 -27 -3 -28 -3 0
19 c0 25 8 32 37 32 l24 0 -3 -22z" />
    <path d="M5256 263 c-3 -4 -22 -6 -41 -5 l-35 3 0 -10 c0 -5 5 -13 10 -16 6
-3 10 -26 10 -51 l0 -44 -10 0 c-5 0 -10 -7 -10 -15 l0 -15 35 0 35 0 0 15 c0
8 -4 15 -10 15 l-10 0 0 44 0 45 20 6 21 7 14 -12 15 -12 0 -39 c0 -22 -4 -39
-10 -39 -5 0 -10 -7 -10 -15 l0 -15 35 0 35 0 0 15 c0 8 -4 15 -10 15 l-10 0
0 44 0 45 20 6 21 7 14 -12 15 -12 0 -39 c0 -22 -4 -39 -10 -39 -5 0 -10 -7
-10 -15 l0 -15 35 0 35 0 0 15 c0 8 -4 15 -10 15 -5 0 -10 18 -10 39 0 53 -8
71 -38 82 l-25 10 -22 -15 -22 -15 -9 9 c-14 13 -50 21 -58 13z" />
    <path d="M5530 263 c-8 -3 -23 -12 -32 -21 l-18 -15 0 -42 0 -42 18 -16 c27
-25 112 -21 112 5 l0 10 -29 -7 -30 -6 -20 11 c-12 6 -21 17 -21 25 l0 15 50
0 50 0 0 23 c0 13 -6 30 -12 39 -15 19 -47 28 -68 21z m46 -34 c7 -11 -12 -29
-31 -29 -19 0 -38 18 -31 29 9 14 53 14 62 0z" />
  </g>
</svg>